<svg display="none" width="0" height="0" version="1.1" xmlns="http://www.w3.org/2000/svg" xmlns:xlink="http://www.w3.org/1999/xlink">
  <defs>
    <symbol id="dy-logo" viewBox="0 0 1023 1024">
      <path d="M511.413 0c-282.422 0-511.413 228.991-511.413 512 0 282.422 228.991 511.413 511.413 511.413s511.413-228.991 511.413-511.413c0.587-283.009-228.404-512-511.413-512zM808.514 202.569c0 1.761-1.761 4.697-5.284 8.807-9.394 10.569-110.972 123.89-148.55 162.642 16.44 42.275 16.44 115.083 10.569 185.541-8.22 99.229-21.138 139.156-75.156 169.688s-201.982 34.642-275.963 16.44c-73.982-18.202-83.376-92.183-90.422-95.119-28.771-12.33-25.248-58.128-25.248-58.128 20.55-1.174 40.514 24.073 40.514 24.073 8.22-12.917 32.294-25.248 32.294-25.248 11.156 39.339-12.33 52.844-9.982 58.128 5.872 14.679 37.578 49.908 87.486 24.073 49.908-25.248 51.67-94.532 54.606-179.67s25.248-153.248 98.642-169.688c56.367-12.33 96.881 1.761 115.083 10.569 50.495-36.991 165.578-119.193 175.56-126.239 4.697-2.936 8.22-5.284 10.569-6.459h5.284c0 0 0 0 0 0.587v0z"></path>
      <path d="M473.835 577.174c-16.44 22.899-21.138 44.037-31.706 69.284-8.807 19.963-23.486 29.358-34.642 45.798-9.394 14.092 20.55 18.789 28.771 19.376 21.725 0.587 45.798-10.569 58.716-27.596 17.615-24.073 19.376-46.972 31.706-72.22 6.459-13.505 26.422-39.339 27.596-51.67 2.936-23.486-56.367-16.44-80.44 17.028z"></path>
      <path d="M532.55 392.807c-11.743 4.11-18.202 16.44-14.092 28.183 3.523 11.743 16.44 18.202 27.596 14.092 11.743-4.11 18.202-16.44 14.092-28.183-3.523-11.156-16.44-17.615-27.596-14.092z"></path>
    </symbol>
    <symbol id="icon-twitter" viewBox="0 0 32 32">
      <title>twitter</title>
      <path class="path1" d="M32 7.075c-1.175 0.525-2.444 0.875-3.769 1.031 1.356-0.813 2.394-2.1 2.887-3.631-1.269 0.75-2.675 1.3-4.169 1.594-1.2-1.275-2.906-2.069-4.794-2.069-3.625 0-6.563 2.938-6.563 6.563 0 0.512 0.056 1.012 0.169 1.494-5.456-0.275-10.294-2.888-13.531-6.862-0.563 0.969-0.887 2.1-0.887 3.3 0 2.275 1.156 4.287 2.919 5.463-1.075-0.031-2.087-0.331-2.975-0.819 0 0.025 0 0.056 0 0.081 0 3.181 2.263 5.838 5.269 6.437-0.55 0.15-1.131 0.231-1.731 0.231-0.425 0-0.831-0.044-1.237-0.119 0.838 2.606 3.263 4.506 6.131 4.563-2.25 1.762-5.075 2.813-8.156 2.813-0.531 0-1.050-0.031-1.569-0.094 2.913 1.869 6.362 2.95 10.069 2.95 12.075 0 18.681-10.006 18.681-18.681 0-0.287-0.006-0.569-0.019-0.85 1.281-0.919 2.394-2.075 3.275-3.394z"></path>
    </symbol>
    <symbol id="icon-github" viewBox="0 0 32 32">
      <title>github</title>
      <path class="path1" d="M16 0.395c-8.836 0-16 7.163-16 16 0 7.069 4.585 13.067 10.942 15.182 0.8 0.148 1.094-0.347 1.094-0.77 0-0.381-0.015-1.642-0.022-2.979-4.452 0.968-5.391-1.888-5.391-1.888-0.728-1.849-1.776-2.341-1.776-2.341-1.452-0.993 0.11-0.973 0.11-0.973 1.606 0.113 2.452 1.649 2.452 1.649 1.427 2.446 3.743 1.739 4.656 1.33 0.143-1.034 0.558-1.74 1.016-2.14-3.554-0.404-7.29-1.777-7.29-7.907 0-1.747 0.625-3.174 1.649-4.295-0.166-0.403-0.714-2.030 0.155-4.234 0 0 1.344-0.43 4.401 1.64 1.276-0.355 2.645-0.532 4.005-0.539 1.359 0.006 2.729 0.184 4.008 0.539 3.054-2.070 4.395-1.64 4.395-1.64 0.871 2.204 0.323 3.831 0.157 4.234 1.026 1.12 1.647 2.548 1.647 4.295 0 6.145-3.743 7.498-7.306 7.895 0.574 0.497 1.085 1.47 1.085 2.963 0 2.141-0.019 3.864-0.019 4.391 0 0.426 0.288 0.925 1.099 0.768 6.354-2.118 10.933-8.113 10.933-15.18 0-8.837-7.164-16-16-16z"></path>
    </symbol>
  </defs>
</svg>
