<svg display="none" width="0" height="0" version="1.1" xmlns="http://www.w3.org/2000/svg" xmlns:xlink="http://www.w3.org/1999/xlink">
  <defs>
    <symbol id="dy-logo" viewBox="0 0 1023 1024">
      <path d="M511.413 0c-282.422 0-511.413 228.991-511.413 512 0 282.422 228.991 511.413 511.413 511.413s511.413-228.991 511.413-511.413c0.587-283.009-228.404-512-511.413-512zM808.514 202.569c0 1.761-1.761 4.697-5.284 8.807-9.394 10.569-110.972 123.89-148.55 162.642 16.44 42.275 16.44 115.083 10.569 185.541-8.22 99.229-21.138 139.156-75.156 169.688s-201.982 34.642-275.963 16.44c-73.982-18.202-83.376-92.183-90.422-95.119-28.771-12.33-25.248-58.128-25.248-58.128 20.55-1.174 40.514 24.073 40.514 24.073 8.22-12.917 32.294-25.248 32.294-25.248 11.156 39.339-12.33 52.844-9.982 58.128 5.872 14.679 37.578 49.908 87.486 24.073 49.908-25.248 51.67-94.532 54.606-179.67s25.248-153.248 98.642-169.688c56.367-12.33 96.881 1.761 115.083 10.569 50.495-36.991 165.578-119.193 175.56-126.239 4.697-2.936 8.22-5.284 10.569-6.459h5.284c0 0 0 0 0 0.587v0z"></path>
      <path d="M473.835 577.174c-16.44 22.899-21.138 44.037-31.706 69.284-8.807 19.963-23.486 29.358-34.642 45.798-9.394 14.092 20.55 18.789 28.771 19.376 21.725 0.587 45.798-10.569 58.716-27.596 17.615-24.073 19.376-46.972 31.706-72.22 6.459-13.505 26.422-39.339 27.596-51.67 2.936-23.486-56.367-16.44-80.44 17.028z"></path>
      <path d="M532.55 392.807c-11.743 4.11-18.202 16.44-14.092 28.183 3.523 11.743 16.44 18.202 27.596 14.092 11.743-4.11 18.202-16.44 14.092-28.183-3.523-11.156-16.44-17.615-27.596-14.092z"></path>
    </symbol>
    <symbol id="icon-twitter" viewBox="0 0 32 32">
      <title>twitter</title>
      <path d="M32 7.075c-1.175 0.525-2.444 0.875-3.769 1.031 1.356-0.813 2.394-2.1 2.887-3.631-1.269 0.75-2.675 1.3-4.169 1.594-1.2-1.275-2.906-2.069-4.794-2.069-3.625 0-6.563 2.938-6.563 6.563 0 0.512 0.056 1.012 0.169 1.494-5.456-0.275-10.294-2.888-13.531-6.862-0.563 0.969-0.887 2.1-0.887 3.3 0 2.275 1.156 4.287 2.919 5.463-1.075-0.031-2.087-0.331-2.975-0.819 0 0.025 0 0.056 0 0.081 0 3.181 2.263 5.838 5.269 6.437-0.55 0.15-1.131 0.231-1.731 0.231-0.425 0-0.831-0.044-1.237-0.119 0.838 2.606 3.263 4.506 6.131 4.563-2.25 1.762-5.075 2.813-8.156 2.813-0.531 0-1.050-0.031-1.569-0.094 2.913 1.869 6.362 2.95 10.069 2.95 12.075 0 18.681-10.006 18.681-18.681 0-0.287-0.006-0.569-0.019-0.85 1.281-0.919 2.394-2.075 3.275-3.394z"></path>
    </symbol>
    <symbol id="icon-github" viewBox="0 0 32 32">
      <title>github</title>
      <path d="M16 0.395c-8.836 0-16 7.163-16 16 0 7.069 4.585 13.067 10.942 15.182 0.8 0.148 1.094-0.347 1.094-0.77 0-0.381-0.015-1.642-0.022-2.979-4.452 0.968-5.391-1.888-5.391-1.888-0.728-1.849-1.776-2.341-1.776-2.341-1.452-0.993 0.11-0.973 0.11-0.973 1.606 0.113 2.452 1.649 2.452 1.649 1.427 2.446 3.743 1.739 4.656 1.33 0.143-1.034 0.558-1.74 1.016-2.14-3.554-0.404-7.29-1.777-7.29-7.907 0-1.747 0.625-3.174 1.649-4.295-0.166-0.403-0.714-2.030 0.155-4.234 0 0 1.344-0.43 4.401 1.64 1.276-0.355 2.645-0.532 4.005-0.539 1.359 0.006 2.729 0.184 4.008 0.539 3.054-2.070 4.395-1.64 4.395-1.64 0.871 2.204 0.323 3.831 0.157 4.234 1.026 1.12 1.647 2.548 1.647 4.295 0 6.145-3.743 7.498-7.306 7.895 0.574 0.497 1.085 1.47 1.085 2.963 0 2.141-0.019 3.864-0.019 4.391 0 0.426 0.288 0.925 1.099 0.768 6.354-2.118 10.933-8.113 10.933-15.18 0-8.837-7.164-16-16-16z"></path>
    </symbol>
    <symbol id="icon-website" viewBox="0 0 24 28">
      <title>website</title>
      <path d="M12 2q3.266 0 6.023 1.609t4.367 4.367 1.609 6.023-1.609 6.023-4.367 4.367-6.023 1.609-6.023-1.609-4.367-4.367-1.609-6.023 1.609-6.023 4.367-4.367 6.023-1.609zM16.281 10.141q-0.031 0.016-0.148 0.148t-0.211 0.148q0.031 0 0.070-0.078t0.078-0.172 0.055-0.109q0.094-0.109 0.344-0.234 0.219-0.094 0.812-0.187 0.531-0.125 0.797 0.172-0.031-0.031 0.148-0.203t0.227-0.187q0.047-0.031 0.234-0.070t0.234-0.117l0.031-0.344q-0.187 0.016-0.273-0.109t-0.102-0.328q0 0.031-0.094 0.125 0-0.109-0.070-0.125t-0.18 0.016-0.141 0.016q-0.156-0.047-0.234-0.117t-0.125-0.258-0.063-0.234q-0.031-0.078-0.148-0.164t-0.148-0.164q-0.016-0.031-0.039-0.086t-0.047-0.102-0.063-0.086-0.086-0.039-0.109 0.078-0.117 0.156-0.070 0.078q-0.047-0.031-0.094-0.023t-0.070 0.016-0.070 0.047-0.078 0.055q-0.047 0.031-0.133 0.047t-0.133 0.031q0.234-0.078-0.016-0.172-0.156-0.063-0.25-0.047 0.141-0.063 0.117-0.187t-0.133-0.219h0.078q-0.016-0.063-0.133-0.133t-0.273-0.133-0.203-0.094q-0.125-0.078-0.531-0.148t-0.516-0.008q-0.078 0.094-0.070 0.164t0.063 0.219 0.055 0.195q0.016 0.094-0.086 0.203t-0.102 0.187q0 0.109 0.219 0.242t0.156 0.336q-0.047 0.125-0.25 0.25t-0.25 0.187q-0.078 0.125-0.023 0.289t0.164 0.258q0.031 0.031 0.023 0.063t-0.055 0.070-0.086 0.063-0.102 0.055l-0.047 0.031q-0.172 0.078-0.32-0.094t-0.211-0.406q-0.109-0.391-0.25-0.469-0.359-0.125-0.453 0.016-0.078-0.203-0.641-0.406-0.391-0.141-0.906-0.063 0.094-0.016 0-0.234-0.109-0.234-0.297-0.187 0.047-0.094 0.063-0.273t0.016-0.211q0.047-0.203 0.187-0.359 0.016-0.016 0.109-0.133t0.148-0.211 0.008-0.094q0.547 0.063 0.781-0.172 0.078-0.078 0.18-0.266t0.164-0.266q0.141-0.094 0.219-0.086t0.227 0.086 0.227 0.078q0.219 0.016 0.242-0.172t-0.117-0.313q0.187 0.016 0.047-0.266-0.078-0.109-0.125-0.141-0.187-0.063-0.422 0.078-0.125 0.063 0.031 0.125-0.016-0.016-0.148 0.164t-0.258 0.273-0.25-0.078q-0.016-0.016-0.086-0.211t-0.148-0.211q-0.125 0-0.25 0.234 0.047-0.125-0.172-0.234t-0.375-0.125q0.297-0.187-0.125-0.422-0.109-0.063-0.32-0.078t-0.305 0.063q-0.078 0.109-0.086 0.18t0.078 0.125 0.164 0.086 0.18 0.063 0.133 0.047q0.219 0.156 0.125 0.219-0.031 0.016-0.133 0.055t-0.18 0.070-0.094 0.063q-0.047 0.063 0 0.219t-0.031 0.219q-0.078-0.078-0.141-0.273t-0.109-0.258q0.109 0.141-0.391 0.094l-0.156-0.016q-0.063 0-0.25 0.031t-0.32 0.016-0.211-0.125q-0.063-0.125 0-0.313 0.016-0.063 0.063-0.031-0.063-0.047-0.172-0.148t-0.156-0.133q-0.719 0.234-1.469 0.641 0.094 0.016 0.187-0.016 0.078-0.031 0.203-0.102t0.156-0.086q0.531-0.219 0.656-0.109l0.078-0.078q0.219 0.25 0.313 0.391-0.109-0.063-0.469-0.016-0.313 0.094-0.344 0.187 0.109 0.187 0.078 0.281-0.063-0.047-0.18-0.156t-0.227-0.172-0.234-0.078q-0.25 0-0.344 0.016-2.281 1.25-3.672 3.469 0.109 0.109 0.187 0.125 0.063 0.016 0.078 0.141t0.039 0.172 0.18-0.047q0.141 0.125 0.047 0.297 0.016-0.016 0.688 0.422 0.297 0.266 0.328 0.328 0.047 0.172-0.156 0.281-0.016-0.031-0.141-0.141t-0.141-0.063q-0.047 0.078 0.008 0.289t0.164 0.195q-0.109 0-0.148 0.25t-0.039 0.555-0.016 0.367l0.031 0.016q-0.047 0.187 0.086 0.539t0.336 0.305q-0.203 0.047 0.313 0.672 0.094 0.125 0.125 0.141 0.047 0.031 0.187 0.117t0.234 0.156 0.156 0.164q0.063 0.078 0.156 0.352t0.219 0.367q-0.031 0.094 0.148 0.313t0.164 0.359q-0.016 0-0.039 0.016t-0.039 0.016q0.047 0.109 0.242 0.219t0.242 0.203q0.016 0.047 0.031 0.156t0.047 0.172 0.125 0.031q0.031-0.313-0.375-0.969-0.234-0.391-0.266-0.453-0.047-0.078-0.086-0.242t-0.070-0.227q0.031 0 0.094 0.023t0.133 0.055 0.117 0.063 0.031 0.047q-0.047 0.109 0.031 0.273t0.187 0.289 0.266 0.297 0.187 0.203q0.094 0.094 0.219 0.305t0 0.211q0.141 0 0.313 0.156t0.266 0.313q0.078 0.125 0.125 0.406t0.078 0.375q0.031 0.109 0.133 0.211t0.195 0.148l0.25 0.125t0.203 0.109q0.078 0.031 0.289 0.164t0.336 0.18q0.156 0.063 0.25 0.063t0.227-0.039 0.211-0.055q0.234-0.031 0.453 0.234t0.328 0.328q0.562 0.297 0.859 0.172-0.031 0.016 0.008 0.117t0.125 0.242 0.141 0.227 0.086 0.133q0.078 0.094 0.281 0.234t0.281 0.234q0.094-0.063 0.109-0.141-0.047 0.125 0.109 0.313t0.281 0.156q0.219-0.047 0.219-0.5-0.484 0.234-0.766-0.281 0-0.016-0.039-0.086t-0.063-0.133-0.039-0.133 0-0.117 0.078-0.047q0.141 0 0.156-0.055t-0.031-0.195-0.063-0.203q-0.016-0.125-0.172-0.313t-0.187-0.234q-0.078 0.141-0.25 0.125t-0.25-0.141q0 0.016-0.023 0.086t-0.023 0.102q-0.203 0-0.234-0.016 0.016-0.047 0.039-0.273t0.055-0.352q0.016-0.063 0.086-0.187t0.117-0.227 0.063-0.195-0.070-0.148-0.273-0.039q-0.297 0.016-0.406 0.313-0.016 0.047-0.047 0.164t-0.078 0.18-0.141 0.109q-0.109 0.047-0.375 0.031t-0.375-0.078q-0.203-0.125-0.352-0.453t-0.148-0.578q0-0.156 0.039-0.414t0.047-0.391-0.086-0.383q0.047-0.031 0.141-0.148t0.156-0.164q0.031-0.016 0.070-0.023t0.070 0 0.063-0.023 0.047-0.094q-0.016-0.016-0.063-0.047-0.047-0.047-0.063-0.047 0.109 0.047 0.445-0.023t0.43 0.023q0.234 0.172 0.344-0.031 0-0.016-0.039-0.148t-0.008-0.211q0.078 0.422 0.453 0.141 0.047 0.047 0.242 0.078t0.273 0.078q0.047 0.031 0.109 0.086t0.086 0.070 0.078-0.008 0.133-0.102q0.156 0.219 0.187 0.375 0.172 0.625 0.297 0.688 0.109 0.047 0.172 0.031t0.070-0.148 0-0.219-0.023-0.195l-0.016-0.125v-0.281l-0.016-0.125q-0.234-0.047-0.289-0.187t0.023-0.289 0.234-0.289q0.016-0.016 0.125-0.055t0.242-0.102 0.195-0.125q0.328-0.297 0.234-0.547 0.109 0 0.172-0.141-0.016 0-0.078-0.047t-0.117-0.078-0.070-0.031q0.141-0.078 0.031-0.25 0.078-0.047 0.117-0.172t0.117-0.156q0.141 0.187 0.328 0.031 0.109-0.125 0.016-0.25 0.078-0.109 0.32-0.164t0.289-0.148q0.109 0.031 0.125-0.031t0.016-0.187 0.047-0.187q0.063-0.078 0.234-0.141t0.203-0.078l0.266-0.172q0.047-0.063 0-0.063 0.281 0.031 0.484-0.172 0.156-0.172-0.094-0.313 0.047-0.094-0.047-0.148t-0.234-0.086q0.047-0.016 0.18-0.008t0.164-0.023q0.234-0.156-0.109-0.25-0.266-0.078-0.672 0.187zM13.734 23.844q3.219-0.562 5.484-2.953-0.047-0.047-0.195-0.070t-0.195-0.055q-0.281-0.109-0.375-0.125 0.016-0.109-0.039-0.203t-0.125-0.141-0.195-0.125-0.172-0.109q-0.031-0.031-0.109-0.094t-0.109-0.086-0.117-0.070-0.133-0.031-0.156 0.016l-0.047 0.016q-0.047 0.016-0.086 0.039t-0.086 0.047-0.063 0.047 0 0.039q-0.328-0.266-0.562-0.344-0.078-0.016-0.172-0.086t-0.164-0.109-0.156-0.023-0.18 0.109q-0.078 0.078-0.094 0.234t-0.031 0.203q-0.109-0.078 0-0.273t0.031-0.289q-0.047-0.094-0.164-0.070t-0.187 0.070-0.18 0.133-0.141 0.102-0.133 0.086-0.133 0.117q-0.047 0.063-0.094 0.187t-0.078 0.172q-0.031-0.063-0.18-0.102t-0.148-0.086q0.031 0.156 0.063 0.547t0.078 0.594q0.109 0.484-0.187 0.75-0.422 0.391-0.453 0.625-0.063 0.344 0.187 0.406 0 0.109-0.125 0.32t-0.109 0.336q0 0.094 0.031 0.25z"></path>
    </symbol>
  </defs>
</svg>
