<?xml version="1.0" encoding="UTF-8" standalone="no"?>
<svg width="400px" height="400px" viewBox="0 0 400 400" version="1.1" xmlns="http://www.w3.org/2000/svg" xmlns:xlink="http://www.w3.org/1999/xlink" xmlns:sketch="http://www.bohemiancoding.com/sketch/ns">
    <!-- Generator: Sketch 3.2.2 (9983) - http://www.bohemiancoding.com/sketch -->
    <title>201 Created Square</title>
    <desc>Created with Sketch.</desc>
    <defs></defs>
    <g id="Page-1" stroke="none" stroke-width="1" fill="none" fill-rule="evenodd" sketch:type="MSPage">
        <rect id="Rectangle-1" stroke="#8E897B" stroke-width="4" fill="#FFF9E8" sketch:type="MSShapeGroup" x="0" y="0" width="400" height="400"></rect>
        <path d="M33.398,182.2305 C33.2875,182.562 33.2875,182.783 33.2875,182.8935 C33.2875,183.7775 33.9505,184.4405 34.8345,184.4405 C35.4975,184.4405 36.05,184.109 36.271,183.5565 C38.702,176.595 43.6745,171.1805 55.056,171.1805 C67.874,171.1805 74.283,178.9155 74.283,189.3025 C74.283,215.1595 30.525,217.038 30.525,242.453 C30.525,243.337 31.188,244 32.072,244 L77.4875,244 C78.3715,244 79.0345,243.337 79.0345,242.453 C79.0345,241.569 78.3715,240.906 77.4875,240.906 L34.061,240.906 C34.061,220.795 77.819,215.8225 77.819,189.3025 C77.819,176.595 69.7525,168.0865 55.056,168.0865 C43.564,168.0865 36.271,173.501 33.398,182.2305 L33.398,182.2305 Z M116.1625,168.0865 C97.488,168.0865 89.4215,179.468 89.4215,206.7615 C89.4215,234.055 97.488,245.547 116.1625,245.547 C134.837,245.547 142.9035,234.055 142.9035,206.7615 C142.9035,179.468 134.837,168.0865 116.1625,168.0865 L116.1625,168.0865 Z M116.1625,242.5635 C99.698,242.5635 92.847,231.7345 92.847,206.7615 C92.847,181.7885 99.698,170.9595 116.1625,170.9595 C132.627,170.9595 139.478,181.7885 139.478,206.7615 C139.478,231.7345 132.627,242.5635 116.1625,242.5635 L116.1625,242.5635 Z M173.733,173.3905 L173.733,243.2265 C173.733,244.1105 174.396,244.884 175.3905,244.884 C176.385,244.884 177.1585,244.1105 177.1585,243.2265 L177.1585,170.407 C177.1585,169.4125 176.4955,168.7495 175.501,168.7495 C175.059,168.7495 174.7275,168.86 174.2855,169.1915 L155.39,182.341 C154.948,182.6725 154.727,183.1145 154.727,183.667 C154.727,184.551 155.5005,185.214 156.274,185.214 C156.6055,185.214 156.937,185.1035 157.2685,184.8825 L173.733,173.3905 Z M63.896,367.547 C74.1725,367.547 83.786,363.2375 88.5375,356.055 C88.7585,355.7235 88.869,355.2815 88.869,355.0605 C88.869,354.1765 88.206,353.5135 87.322,353.5135 C86.88,353.5135 86.438,353.624 85.996,354.1765 C80.8025,361.138 72.294,364.453 63.896,364.453 C44.448,364.453 33.398,354.8395 33.398,328.872 C33.398,304.341 44.448,293.1805 63.896,293.1805 C73.5095,293.1805 81.576,297.711 85.996,303.678 C86.438,304.2305 86.88,304.341 87.322,304.341 C88.206,304.341 88.869,303.678 88.869,302.794 C88.869,302.352 88.648,301.91 88.427,301.5785 C83.4545,294.617 74.3935,290.0865 63.896,290.0865 C42.5695,290.0865 29.862,302.6835 29.862,328.872 C29.862,356.1655 42.5695,367.547 63.896,367.547 L63.896,367.547 Z M103.1235,314.949 C102.2395,314.949 101.466,315.7225 101.466,316.6065 L101.466,365.2265 C101.466,366.1105 102.2395,366.884 103.1235,366.884 C104.0075,366.884 104.781,366.1105 104.781,365.2265 L104.781,339.1485 C104.781,327.104 110.969,317.2695 123.6765,317.2695 C124.45,317.2695 125.113,316.6065 125.113,315.833 C125.113,315.0595 124.45,314.3965 123.6765,314.3965 C113.2895,314.3965 107.1015,320.032 104.781,327.4355 L104.781,316.6065 C104.781,315.7225 104.0075,314.949 103.1235,314.949 L103.1235,314.949 Z M129.6435,340.806 C129.6435,359.4805 138.7045,367.4365 153.401,367.4365 C163.567,367.4365 168.871,363.0165 170.639,361.359 C170.9705,361.0275 171.302,360.696 171.302,360.1435 C171.302,359.37 170.639,358.707 169.8655,358.707 C169.534,358.707 169.313,358.8175 168.9815,359.0385 C165.777,361.6905 161.6885,364.5635 153.401,364.5635 C140.4725,364.5635 133.069,357.16 133.069,341.248 L170.3075,341.248 C171.744,341.248 172.5175,340.6955 172.7385,339.48 C172.9595,338.154 172.9595,336.607 172.9595,335.3915 C172.9595,327.988 170.5285,314.286 152.1855,314.286 C138.0415,314.286 129.6435,323.6785 129.6435,340.806 L129.6435,340.806 Z M169.755,335.3915 C169.755,336.2755 169.6445,338.4855 169.6445,338.4855 L133.069,338.4855 C133.511,325.336 139.699,317.159 152.1855,317.159 C166.3295,317.159 169.755,326.5515 169.755,335.3915 L169.755,335.3915 Z M201.9105,317.159 C212.0765,317.159 218.154,322.242 218.154,331.6345 L218.154,336.7175 L201.137,336.7175 C188.54,336.7175 180.6945,342.353 180.6945,352.077 C180.6945,361.801 187.5455,367.326 199.9215,367.326 C207.325,367.326 214.5075,364.5635 218.154,358.707 L218.154,365.2265 C218.154,366.1105 218.817,366.7735 219.701,366.7735 C220.585,366.7735 221.248,366.1105 221.248,365.2265 L221.248,332.5185 C221.248,321.579 215.502,314.286 201.9105,314.286 C192.6285,314.286 187.1035,318.8165 184.2305,323.4575 C184.0095,323.789 183.899,324.1205 183.899,324.452 C183.899,325.336 184.562,325.999 185.446,325.999 C185.888,325.999 186.4405,325.778 186.772,325.2255 C189.424,321.137 192.96,317.159 201.9105,317.159 L201.9105,317.159 Z M199.9215,364.453 C189.203,364.453 184.12,359.7015 184.12,352.077 C184.12,343.5685 191.192,339.48 201.137,339.48 L218.154,339.48 L218.154,348.8725 C218.154,359.2595 209.535,364.453 199.9215,364.453 L199.9215,364.453 Z M238.3755,315.833 L231.5245,315.833 C230.751,315.833 230.088,316.496 230.088,317.2695 C230.088,318.043 230.751,318.706 231.5245,318.706 L238.3755,318.706 L238.3755,353.845 C238.3755,361.359 242.7955,366.884 250.862,366.884 C251.6355,366.884 252.2985,366.221 252.2985,365.4475 C252.2985,364.674 251.6355,364.011 250.862,364.011 C245.4475,364.011 241.6905,360.475 241.6905,353.845 L241.6905,318.706 L251.6355,318.706 C252.409,318.706 253.072,318.043 253.072,317.2695 C253.072,316.496 252.409,315.833 251.6355,315.833 L241.6905,315.833 L241.6905,302.352 C241.6905,301.468 240.917,300.6945 240.033,300.6945 C239.149,300.6945 238.3755,301.468 238.3755,302.352 L238.3755,315.833 Z M261.5805,340.806 C261.5805,359.4805 270.6415,367.4365 285.338,367.4365 C295.504,367.4365 300.808,363.0165 302.576,361.359 C302.9075,361.0275 303.239,360.696 303.239,360.1435 C303.239,359.37 302.576,358.707 301.8025,358.707 C301.471,358.707 301.25,358.8175 300.9185,359.0385 C297.714,361.6905 293.6255,364.5635 285.338,364.5635 C272.4095,364.5635 265.006,357.16 265.006,341.248 L302.2445,341.248 C303.681,341.248 304.4545,340.6955 304.6755,339.48 C304.8965,338.154 304.8965,336.607 304.8965,335.3915 C304.8965,327.988 302.4655,314.286 284.1225,314.286 C269.9785,314.286 261.5805,323.6785 261.5805,340.806 L261.5805,340.806 Z M301.692,335.3915 C301.692,336.2755 301.5815,338.4855 301.5815,338.4855 L265.006,338.4855 C265.448,325.336 271.636,317.159 284.1225,317.159 C298.2665,317.159 301.692,326.5515 301.692,335.3915 L301.692,335.3915 Z M353.627,330.0875 L353.627,345.9995 C353.627,358.928 346.0025,364.5635 335.6155,364.5635 C323.129,364.5635 316.499,357.381 316.499,340.806 C316.499,324.452 323.129,317.159 335.6155,317.159 C349.3175,317.159 353.627,330.0875 353.627,330.0875 L353.627,330.0875 Z M335.6155,314.286 C321.4715,314.286 312.963,322.684 312.963,340.806 C312.963,358.928 321.4715,367.4365 335.6155,367.4365 C347.9915,367.4365 356.942,360.3645 356.942,345.9995 L356.942,288.9815 C356.942,288.0975 356.1685,287.324 355.2845,287.324 C354.4005,287.324 353.627,288.0975 353.627,288.9815 L353.627,324.7835 C353.627,324.7835 349.207,314.286 335.6155,314.286 L335.6155,314.286 Z" id="201-Vector" opacity="0.858034049" fill="#001EB2" sketch:type="MSShapeGroup"></path>
    </g>
</svg>