<?xml version="1.0" encoding="utf-8"?>
<!-- Generator: Adobe Illustrator 18.1.1, SVG Export Plug-In . SVG Version: 6.00 Build 0)  -->
<!DOCTYPE svg PUBLIC "-//W3C//DTD SVG 1.1//EN" "http://www.w3.org/Graphics/SVG/1.1/DTD/svg11.dtd">
<svg version="1.1" id="Layer_1" xmlns="http://www.w3.org/2000/svg" xmlns:xlink="http://www.w3.org/1999/xlink" x="0px" y="0px"
	 viewBox="0 0 345.1 71.7" enable-background="new 0 0 345.1 71.7" xml:space="preserve">
<g>
	<g>
		<g>
			<g>
				<path fill="#005C90" d="M89.7,14.2H65.5v11.1h21.5V32H65.5v11.5H90v6.7h-32V7.4h31.7V14.2z"/>
				<path fill="#005C90" d="M121,50.3v-5.4c-2.4,3.4-5.7,6.1-11,6.1c-7.6,0-15-6.1-15-16.8c0-10.8,7.3-16.8,15-16.8
					c5.3,0,8.7,2.7,11,5.7V17h7.4v33.2H121z M111.8,23.7c-5.1,0-9.3,3.9-9.3,10.4c0,6.4,4.3,10.4,9.3,10.4c5,0,9.4-4.1,9.4-10.4
					C121.1,27.8,116.7,23.7,111.8,23.7z"/>
				<path fill="#005C90" d="M147.4,50.9c-4.6,0-9.7-1.7-13.7-4.8l3.3-5c3.5,2.6,7.3,4,10.6,4c3.2,0,5-1.3,5-3.5v-0.1
					c0-2.5-3.4-3.4-7.2-4.5c-4.8-1.3-10.1-3.3-10.1-9.5v-0.1c0-6.1,5.1-9.8,11.5-9.8c4,0,8.4,1.4,11.9,3.7l-2.9,5.3
					c-3.1-1.9-6.4-3.1-9.1-3.1c-2.9,0-4.5,1.3-4.5,3.2v0.1c0,2.3,3.5,3.3,7.3,4.5c4.7,1.5,10,3.6,10,9.4v0.1
					C159.4,47.5,154.2,50.9,147.4,50.9z"/>
				<path fill="#005C90" d="M177.5,40.2c0,2.9,1.5,4,4,4c1.7,0,3.1-0.4,4.6-1.1v6.1c-1.8,1-3.9,1.7-6.7,1.7c-5.4,0-9.3-2.4-9.3-9.5
					v-17h-6.6V18h6.6V9.1h7.4V18h7v6.4h-7V40.2z"/>
				<path fill="#005C90" d="M199.1,50.3h-7.4V18h7.4v7.3c2-4.8,5.7-8.1,11.4-7.9v7.8h-0.4c-6.5,0-11,4.2-11,12.8V50.3z"/>
				<path fill="#005C90" d="M224,9.5c0,2.2-1.8,4.1-4.1,4.1c-2.2,0-4.1-1.8-4.1-4.1c0-2.2,1.8-4.1,4.1-4.1
					C222.2,5.4,224,7.3,224,9.5z M216.3,50.3V18h7.4v32.3H216.3z"/>
				<path fill="#005C90" d="M254.7,50.3v-5.4c-2.4,3.4-5.7,6.1-11,6.1c-7.6,0-15-6.1-15-16.8c0-10.8,7.3-16.8,15-16.8
					c5.3,0,8.7,2.7,11,5.7V5.6h7.4v44.6H254.7z M245.5,23.7c-5.1,0-9.3,3.9-9.3,10.4c0,6.4,4.3,10.4,9.3,10.4c5,0,9.4-4.1,9.4-10.4
					C254.9,27.8,250.4,23.7,245.5,23.7z"/>
				<path fill="#005C90" d="M283.1,60.2c-5.3,0-10.3-1.3-14.4-3.9l2.8-5.6c3.4,2.1,7.1,3.4,11.5,3.4c6.6,0,10.2-3.4,10.2-9.9v-2.5
					c-2.7,3.5-6.1,5.9-11.4,5.9c-7.6,0-14.7-5.6-14.7-15.2c0-9.6,7.2-15.2,14.7-15.2c5.4,0,8.8,2.5,11.3,5.5V18h7.4v25.7
					C300.5,55.1,294.3,60.2,283.1,60.2z M283.8,23.5c-5.1,0-9.2,3.5-9.2,8.9c0,5.4,4.1,9,9.2,9c5.1,0,9.5-3.6,9.5-8.9
					C293.2,27.1,288.9,23.5,283.8,23.5z"/>
				<path fill="#005C90" d="M322.3,44.9c3.6,0,6.2-1.3,8.7-3.9l4.3,3.9c-3.1,3.7-7.3,6.1-13.2,6.1c-9.4,0-16.6-6.8-16.6-16.8
					c0-9.3,6.5-16.9,15.8-16.9c10.3,0,15.5,8.1,15.5,17.4c0,0.7-0.1,1.3-0.1,2H313C313.9,42,317.6,44.9,322.3,44.9z M329.5,31.8
					c-0.5-4.8-3.3-8.5-8.2-8.5c-4.5,0-7.7,3.5-8.4,8.5H329.5z"/>
			</g>
			<g>
				<path fill="#A1CE57" d="M64.7,55.8h1.5l2.5,7.6l2.4-7.6h1.9l-3.6,10.3H68l-2.5-7.3L63,66.2h-1.5l-3.6-10.3h1.9l2.4,7.6
					L64.7,55.8z"/>
				<path fill="#A1CE57" d="M80.3,66.3c-3.1,0-5.3-2.4-5.3-5.3c0-2.9,2.2-5.3,5.4-5.3c3.1,0,5.3,2.4,5.3,5.3
					C85.7,63.9,83.5,66.3,80.3,66.3z M80.3,57.3c-2,0-3.4,1.6-3.4,3.6c0,2,1.4,3.7,3.5,3.7c2,0,3.4-1.6,3.4-3.6
					C83.8,59,82.3,57.3,80.3,57.3z"/>
				<path fill="#A1CE57" d="M94.9,66.1l-2.5-3.6h-2.2v3.6h-1.8V55.9h4.6c2.4,0,3.8,1.2,3.8,3.2c0,1.7-1,2.7-2.4,3.1l2.8,3.9H94.9z
					 M92.8,57.5h-2.6v3.4h2.6c1.3,0,2.1-0.7,2.1-1.7C94.9,58.1,94.1,57.5,92.8,57.5z"/>
				<path fill="#A1CE57" d="M108.5,66.1h-2.2l-3.5-4.6l-1.6,1.6v3h-1.8V55.9h1.8V61l4.9-5.1h2.2l-4.3,4.4L108.5,66.1z"/>
				<path fill="#A1CE57" d="M118.1,57.5h-5.8v2.8h5.2v1.6h-5.2v4.2h-1.8V55.9h7.6V57.5z"/>
				<path fill="#A1CE57" d="M125.5,66.3c-3.1,0-5.3-2.4-5.3-5.3c0-2.9,2.2-5.3,5.4-5.3s5.3,2.4,5.3,5.3
					C130.8,63.9,128.6,66.3,125.5,66.3z M125.5,57.3c-2,0-3.4,1.6-3.4,3.6c0,2,1.4,3.7,3.5,3.7c2,0,3.4-1.6,3.4-3.6
					C128.9,59,127.5,57.3,125.5,57.3z"/>
				<path fill="#A1CE57" d="M140.1,66.1l-2.5-3.6h-2.2v3.6h-1.8V55.9h4.6c2.4,0,3.8,1.2,3.8,3.2c0,1.7-1,2.7-2.4,3.1l2.8,3.9H140.1z
					 M137.9,57.5h-2.6v3.4h2.6c1.3,0,2.1-0.7,2.1-1.7C140,58.1,139.2,57.5,137.9,57.5z"/>
				<path fill="#A1CE57" d="M149.3,66.3c-3,0-5.2-2.3-5.2-5.3c0-2.9,2.2-5.3,5.3-5.3c1.9,0,3,0.7,4,1.6l-1.2,1.3
					c-0.8-0.8-1.7-1.3-2.9-1.3c-2,0-3.4,1.6-3.4,3.6c0,2,1.4,3.7,3.4,3.7c1.3,0,2.1-0.5,2.9-1.3l1.2,1.2
					C152.4,65.6,151.2,66.3,149.3,66.3z"/>
				<path fill="#A1CE57" d="M163.4,57.5h-5.8v2.7h5.1v1.6h-5.1v2.7h5.9v1.6h-7.7V55.9h7.6V57.5z"/>
				<path fill="#A1CE57" d="M175,60.2c2.2,0.5,3.3,1.3,3.3,3c0,1.9-1.5,3.1-3.7,3.1c-1.6,0-3-0.5-4.3-1.6l1.1-1.3
					c1,0.8,2,1.3,3.2,1.3c1.1,0,1.8-0.5,1.8-1.3c0-0.7-0.4-1.1-2.3-1.6c-2.2-0.5-3.4-1.2-3.4-3.1c0-1.8,1.5-3,3.5-3
					c1.5,0,2.7,0.5,3.7,1.3l-1,1.4c-0.9-0.7-1.8-1.1-2.8-1.1c-1.1,0-1.7,0.5-1.7,1.2C172.5,59.3,173,59.7,175,60.2z"/>
				<path fill="#A1CE57" d="M185.7,66.3c-3.1,0-5.3-2.4-5.3-5.3c0-2.9,2.2-5.3,5.4-5.3c3.1,0,5.3,2.4,5.3,5.3
					C191.1,63.9,188.9,66.3,185.7,66.3z M185.7,57.3c-2,0-3.4,1.6-3.4,3.6c0,2,1.4,3.7,3.5,3.7c2,0,3.4-1.6,3.4-3.6
					C189.2,59,187.8,57.3,185.7,57.3z"/>
				<path fill="#A1CE57" d="M193.8,55.9h1.8v8.6h5.4v1.6h-7.2V55.9z"/>
				<path fill="#A1CE57" d="M211.9,61.7c0,3.1-1.7,4.6-4.4,4.6c-2.7,0-4.4-1.5-4.4-4.5v-5.9h1.8v5.8c0,1.9,1,2.9,2.6,2.9
					c1.6,0,2.6-1,2.6-2.8v-5.9h1.8V61.7z"/>
				<path fill="#A1CE57" d="M219.2,66.1h-1.8v-8.6h-3.2v-1.7h8.3v1.7h-3.2V66.1z"/>
				<path fill="#A1CE57" d="M226.7,55.9v10.2h-1.8V55.9H226.7z"/>
				<path fill="#A1CE57" d="M234.9,66.3c-3.1,0-5.3-2.4-5.3-5.3c0-2.9,2.2-5.3,5.4-5.3c3.1,0,5.3,2.4,5.3,5.3
					C240.2,63.9,238,66.3,234.9,66.3z M234.9,57.3c-2,0-3.4,1.6-3.4,3.6c0,2,1.4,3.7,3.5,3.7c2,0,3.4-1.6,3.4-3.6
					C238.3,59,236.9,57.3,234.9,57.3z"/>
				<path fill="#A1CE57" d="M250,55.9h1.8v10.2h-1.5l-5.6-7.3v7.3h-1.8V55.9h1.7l5.5,7.1V55.9z"/>
				<path fill="#A1CE57" d="M258.9,60.2c2.2,0.5,3.3,1.3,3.3,3c0,1.9-1.5,3.1-3.7,3.1c-1.6,0-3-0.5-4.3-1.6l1.1-1.3
					c1,0.8,2,1.3,3.2,1.3c1.1,0,1.8-0.5,1.8-1.3c0-0.7-0.4-1.1-2.3-1.6c-2.2-0.5-3.4-1.2-3.4-3.1c0-1.8,1.5-3,3.5-3
					c1.5,0,2.7,0.5,3.7,1.3l-1,1.4c-0.9-0.7-1.8-1.1-2.8-1.1c-1.1,0-1.7,0.5-1.7,1.2C256.5,59.3,256.9,59.7,258.9,60.2z"/>
			</g>
		</g>
	</g>
	<g>
		<g>
			<polygon fill="#A1CE57" points="29.6,15.3 21.8,7.4 12.1,7.4 29.6,24.9 29.6,24.9 29.6,24.9 47.1,7.4 37.5,7.4 			"/>
			<polygon fill="#005C90" points="8.2,11.3 8.2,21 16.1,28.8 8.2,36.7 8.2,46.3 25.7,28.8 25.7,28.8 25.7,28.8 			"/>
			<polygon fill="#6CBE45" points="33.5,28.8 33.5,28.8 51,46.3 51,36.7 43.2,28.8 51,21 51,11.3 33.5,28.8 			"/>
			<polygon fill="#40B1E5" points="29.6,32.7 29.6,32.7 12.1,50.2 21.8,50.2 29.6,42.4 37.5,50.2 47.1,50.2 29.6,32.7 			"/>
		</g>
	</g>
</g>
</svg>
